<svg xmlns="http://www.w3.org/2000/svg" version="1.1" xmlnsXlink="http://www.w3.org/1999/xlink" xmlnsSvgjs="http://svgjs.dev/svgjs" width="300" height="110" viewBox="0 0 1000 285"><g transform="matrix(1,0,0,1,-0.6060606060606233,0.14110362808773402)"><svg viewBox="0 0 396 113" data-background-color="#6F7780" preserveAspectRatio="xMidYMid meet" height="285" width="1000" xmlns="http://www.w3.org/2000/svg" xmlnsXlink="http://www.w3.org/1999/xlink"><g id="tight-bounds" transform="matrix(1,0,0,1,0.2400000000000091,-0.05594635078566057)"><svg viewBox="0 0 395.52 111.04036876491082" height="111.04036876491082" width="395.52"><g><svg viewBox="0 0 395.52 111.04036876491082" height="111.04036876491082" width="395.52"><g><svg viewBox="0 0 395.52 111.04036876491082" height="111.04036876491082" width="395.52"><g id="textblocktransform"><svg viewBox="0 0 395.52 111.04036876491082" height="111.04036876491082" width="395.52" id="textblock"><g><rect width="395.52" height="88.21295433938398" fill="none" stroke-width="8.962371322224001" stroke="#6F7780" data-fill-palette-color="none" data-stroke-palette-color="tertiary"></rect><rect width="395.52" height="24.8989383621873" y="88.21295433938398" fill="#6F7780" data-fill-palette-color="tertiary"></rect></g><g><svg viewBox="0 0 395.52 87.21295433938398" height="87.21295433938398" width="395.52"><g transform="matrix(1,0,0,1,23.461705032,23.461705032)"><svg width="348.596589936" viewBox="3.490000009536743 -37.7400016784668 332.8900146484375 38.470001220703125" height="40.28954427538398" data-palette-color="#6F7780"><path d="M26.39-32.79L26.39-37.01 38.4-37.01 38.4-32.79 35.25-32.79 35.25 0 29 0 11.79-30.69 11.79-4.2 15.6-4.2 15.6 0 3.59 0 3.59-4.2 7.01-4.2 7.01-32.79 3.49-32.79 3.49-37.06 13.45-37.06 30.35-6.67 30.54-7.84 30.54-32.79 26.39-32.79ZM59.15 0.73L59.15 0.73Q55.32 0.73 52.15-0.7 48.97-2.12 46.48-4.76 43.99-7.4 42.7-11.01 41.4-14.62 41.4-18.51L41.4-18.51Q41.4-22.51 42.71-26.03 44.02-29.54 46.37-32.14 48.73-34.74 51.99-36.24 55.25-37.74 59.15-37.74L59.15-37.74Q63.08-37.74 66.35-36.24 69.63-34.74 71.97-32.14 74.31-29.54 75.61-26.03 76.9-22.51 76.9-18.51L76.9-18.51Q76.9-14.5 75.6-11 74.29-7.5 71.93-4.88 69.58-2.27 66.32-0.77 63.06 0.73 59.15 0.73ZM59.15-3.81L59.15-3.81Q62.06-3.81 64.41-5 66.77-6.2 68.43-8.22 70.09-10.23 70.99-12.89 71.9-15.55 71.9-18.51L71.9-18.51Q71.9-21.53 70.91-24.35 69.92-27.17 68.15-29.13 66.38-31.08 64.04-32.14 61.69-33.2 59.15-33.2L59.15-33.2Q56.25-33.2 53.88-32.01 51.51-30.81 49.85-28.8 48.19-26.78 47.29-24.11 46.38-21.44 46.38-18.51L46.38-18.51Q46.38-15.09 47.39-12.41 48.39-9.74 50.03-7.97 51.68-6.2 53.96-5 56.25-3.81 59.15-3.81ZM82.12-32.79L82.12-37.01 97.53-37.01Q100-37.01 102.08-36.36 104.17-35.72 105.7-34.46 107.22-33.2 108.08-31.32 108.93-29.44 108.93-27L108.93-27Q108.93-25.61 108.43-24.26 107.93-22.9 107.04-21.74 106.15-20.58 104.93-19.68 103.71-18.77 102.27-18.29L102.27-18.29Q102.88-18.02 103.5-17.52 104.12-17.02 104.67-16.3 105.22-15.58 105.67-14.66 106.12-13.75 106.39-12.7L106.39-12.7 108.44-4.64 111.64-4.64 111.69 0 104.49 0 101.73-11.25Q100.97-14.28 99.42-15.71 97.87-17.14 95.19-17.14L95.19-17.14 90.42-17.14 90.42-4.2 94.14-4.2 94.14 0 82.12 0 82.12-4.2 85.64-4.2 85.64-32.79 82.12-32.79ZM96.94-32.79L90.42-32.79 90.42-21.14 97.53-21.14Q98.92-21.14 100.08-21.51 101.24-21.88 102.08-22.61 102.92-23.34 103.4-24.43 103.88-25.51 103.88-26.95L103.88-26.95Q103.88-29.71 102.22-31.25 100.56-32.79 96.94-32.79L96.94-32.79ZM117.72-32.79L117.72-37.01 131.49-37.01Q134.03-37.01 136.32-36.35 138.62-35.69 140.59-34.5 142.57-33.3 144.18-31.63 145.79-29.96 146.93-27.91 148.06-25.85 148.67-23.5 149.28-21.14 149.28-18.6L149.28-18.6Q149.28-16.02 148.67-13.65 148.06-11.28 146.93-9.2 145.79-7.13 144.18-5.43 142.57-3.74 140.59-2.53 138.62-1.32 136.32-0.66 134.03 0 131.49 0L131.49 0 117.72 0 117.72-4.2 121.23-4.2 121.23-32.79 117.72-32.79ZM131.78-32.79L126.02-32.79 126.02-4.2 131.78-4.2Q134.34-4.2 136.6-5.32 138.86-6.45 140.54-8.39 142.23-10.33 143.21-12.95 144.18-15.58 144.18-18.6L144.18-18.6Q144.18-21.58 143.21-24.17 142.23-26.76 140.54-28.67 138.86-30.59 136.6-31.69 134.34-32.79 131.78-32.79L131.78-32.79ZM151.02 0Q151.02 0 151.02 0ZM196.96-27.25L191.71-27.25Q190.08-30.03 187.38-31.62 184.68-33.2 181.36-33.2L181.36-33.2Q178.53-33.2 176.18-32.01 173.84-30.81 172.17-28.8 170.5-26.78 169.57-24.13 168.64-21.48 168.64-18.55L168.64-18.55Q168.64-15.09 169.67-12.41 170.69-9.74 172.34-7.97 173.99-6.2 176.26-5.02 178.53-3.83 181.36-3.83L181.36-3.83Q185.22-3.83 188.07-5.7 190.93-7.57 192.96-11.84L192.96-11.84 197.25-9.81Q196.33-7.18 194.1-4.72 191.88-2.27 188.62-0.77 185.36 0.73 181.41 0.73L181.41 0.73Q177.62 0.73 174.45-0.7 171.28-2.12 168.8-4.76 166.32-7.4 165.01-11.01 163.71-14.62 163.71-18.55L163.71-18.55Q163.71-22.51 165.01-26.03 166.32-29.54 168.68-32.14 171.03-34.74 174.29-36.24 177.55-37.74 181.36-37.74L181.36-37.74Q184.75-37.74 187.22-36.78 189.68-35.82 191.41-34.48 193.13-33.15 194.37-31.59L194.37-31.59 196.96-31.59 196.96-27.25ZM202.28-32.79L202.28-37.01 217.69-37.01Q220.15-37.01 222.24-36.36 224.33-35.72 225.85-34.46 227.38-33.2 228.23-31.32 229.09-29.44 229.09-27L229.09-27Q229.09-25.61 228.59-24.26 228.09-22.9 227.19-21.74 226.3-20.58 225.08-19.68 223.86-18.77 222.42-18.29L222.42-18.29Q223.03-18.02 223.65-17.52 224.28-17.02 224.83-16.3 225.38-15.58 225.83-14.66 226.28-13.75 226.55-12.7L226.55-12.7 228.6-4.64 231.8-4.64 231.85 0 224.64 0 221.88-11.25Q221.13-14.28 219.58-15.71 218.03-17.14 215.34-17.14L215.34-17.14 210.58-17.14 210.58-4.2 214.29-4.2 214.29 0 202.28 0 202.28-4.2 205.8-4.2 205.8-32.79 202.28-32.79ZM217.1-32.79L210.58-32.79 210.58-21.14 217.69-21.14Q219.08-21.14 220.24-21.51 221.4-21.88 222.24-22.61 223.08-23.34 223.56-24.43 224.03-25.51 224.03-26.95L224.03-26.95Q224.03-29.71 222.37-31.25 220.71-32.79 217.1-32.79L217.1-32.79ZM259.77 0L259.77-4.2 262.85-4.2 259.92-12.6 245.69-12.6 242.83-4.2 246.64-4.2 246.64 0 234.63 0 234.63-4.2 237.85-4.2 249.37-37.01 256.57-37.01 268.07-4.2 271.78-4.2 271.78 0 259.77 0ZM252.74-33.2L247.08-16.65 258.5-16.65 252.74-33.2ZM275.52-32.79L275.52-37.01 302.03-37.01 302.03-26.54 297.03-26.54 297.03-32.79 283.82-32.79 283.82-20.9 296.54-20.9 296.54-16.8 283.82-16.8 283.82-4.2 287.53-4.2 287.53 0 275.52 0 275.52-4.2 279.03-4.2 279.03-32.79 275.52-32.79ZM313.43 0L313.43-4.2 316.82-4.2 316.82-33.01 308.38-33.01 308.38-27.25 303.37-27.25 303.37-37.01 336.38-37.01 336.38-27.25 331.37-27.25 331.37-33.01 321.61-33.01 321.61-4.2 325.42-4.2 325.42 0 313.43 0Z" opacity="1" transform="matrix(1,0,0,1,0,0)" fill="#6F7780" class="wordmark-text-0" data-fill-palette-color="primary" id="text-0"></path></svg></g></svg></g><g transform="matrix(1,0,0,1,75.54432,87.21295433938398)"><svg viewBox="0 0 244.43135999999998 23.827414425526847" height="23.827414425526847" width="244.43135999999998"><g transform="matrix(1,0,0,1,20,3.2)"><svg width="204.43135999999998" viewBox="5.25 -35.400001525878906 419.9200134277344 35.80000305175781" height="17.427414425526848" data-palette-color="#97978d"><path d="M5.25 0L5.25-35 10.25-35 10.25-4.35 29.2-4.35 29.2 0 5.25 0ZM58.95-7.55L60.65-3.65Q58.4-1.75 54.75-0.68 51.1 0.4 46.8 0.4L46.8 0.4Q42 0.4 38.65-0.88 35.3-2.15 33.6-4.4 31.9-6.65 31.9-9.6L31.9-9.6Q31.9-12.6 33.62-14.78 35.35-16.95 38.1-17.9L38.1-17.9Q35.9-18.9 34.65-20.93 33.4-22.95 33.4-25.6L33.4-25.6Q33.4-28.35 34.97-30.55 36.55-32.75 39.75-34.08 42.95-35.4 47.55-35.4L47.55-35.4Q50.8-35.4 53.87-34.7 56.95-34 59.2-32.7L59.2-32.7 57.75-28.7Q53.25-31.1 47.75-31.1L47.75-31.1Q43.2-31.1 40.8-29.48 38.4-27.85 38.4-25.25L38.4-25.25Q38.4-22.65 40.25-21.25 42.1-19.85 45.55-19.85L45.55-19.85 54.55-19.85 54.55-15.55 45.35-15.55Q41.4-15.55 39.15-14.15 36.9-12.75 36.9-9.95L36.9-9.95Q36.9-7.1 39.45-5.5 42-3.9 47.05-3.9L47.05-3.9Q50.55-3.9 53.72-4.88 56.9-5.85 58.95-7.55L58.95-7.55ZM80.25-35.4Q87.25-35.4 91.3-31.33 95.34-27.25 95.34-19.65L95.34-19.65 95.34 0 90.34 0 90.34-9.65 70.15-9.65 70.15 0 65.25 0 65.25-19.65Q65.25-27.25 69.3-31.33 73.34-35.4 80.25-35.4L80.25-35.4ZM70.15-14L90.34-14 90.34-20.1Q90.34-25.45 87.67-28.2 85-30.95 80.25-30.95L80.25-30.95Q75.5-30.95 72.82-28.2 70.15-25.45 70.15-20.1L70.15-20.1 70.15-14ZM129.89-31.4L128.14-27.45Q123.04-30.35 117.24-30.9L117.24-30.9 117.24 0 112.29 0 112.29-30.9Q106.44-30.35 101.34-27.45L101.34-27.45 99.59-31.4Q106.29-35.4 114.69-35.4L114.69-35.4Q123.19-35.4 129.89-31.4L129.89-31.4ZM160.04-35L165.04-35 165.04 0 160.04 0 160.04-15.6 139.94-15.6 139.94 0 134.94 0 134.94-35 139.94-35 139.94-19.95 160.04-19.95 160.04-35ZM199.89-7.55L201.59-3.65Q199.34-1.75 195.69-0.68 192.04 0.4 187.74 0.4L187.74 0.4Q182.94 0.4 179.59-0.88 176.24-2.15 174.54-4.4 172.84-6.65 172.84-9.6L172.84-9.6Q172.84-12.6 174.56-14.78 176.29-16.95 179.04-17.9L179.04-17.9Q176.84-18.9 175.59-20.93 174.34-22.95 174.34-25.6L174.34-25.6Q174.34-28.35 175.91-30.55 177.49-32.75 180.69-34.08 183.89-35.4 188.49-35.4L188.49-35.4Q191.74-35.4 194.81-34.7 197.89-34 200.14-32.7L200.14-32.7 198.69-28.7Q194.19-31.1 188.69-31.1L188.69-31.1Q184.14-31.1 181.74-29.48 179.34-27.85 179.34-25.25L179.34-25.25Q179.34-22.65 181.19-21.25 183.04-19.85 186.49-19.85L186.49-19.85 195.49-19.85 195.49-15.55 186.29-15.55Q182.34-15.55 180.09-14.15 177.84-12.75 177.84-9.95L177.84-9.95Q177.84-7.1 180.39-5.5 182.94-3.9 187.99-3.9L187.99-3.9Q191.49-3.9 194.66-4.88 197.84-5.85 199.89-7.55L199.89-7.55ZM236.59 0L231.14 0 223.59-10.75Q222.19-10.65 221.39-10.65L221.39-10.65 212.74-10.65 212.74 0 207.74 0 207.74-35 221.39-35Q228.19-35 232.09-31.75 235.99-28.5 235.99-22.8L235.99-22.8Q235.99-18.75 233.99-15.9 231.99-13.05 228.29-11.75L228.29-11.75 236.59 0ZM221.24-14.9Q225.99-14.9 228.49-16.95 230.99-19 230.99-22.8L230.99-22.8Q230.99-26.6 228.49-28.63 225.99-30.65 221.24-30.65L221.24-30.65 212.74-30.65 212.74-14.9 221.24-14.9ZM273.18 0.4Q267.93 0.4 263.7-1.93 259.48-4.25 257.08-8.33 254.68-12.4 254.68-17.5L254.68-17.5Q254.68-22.6 257.08-26.68 259.48-30.75 263.73-33.08 267.98-35.4 273.23-35.4L273.23-35.4Q277.33-35.4 280.73-34.02 284.13-32.65 286.53-29.95L286.53-29.95 283.28-26.8Q279.33-30.95 273.43-30.95L273.43-30.95Q269.53-30.95 266.38-29.2 263.23-27.45 261.45-24.38 259.68-21.3 259.68-17.5L259.68-17.5Q259.68-13.7 261.45-10.63 263.23-7.55 266.38-5.8 269.53-4.05 273.43-4.05L273.43-4.05Q279.28-4.05 283.28-8.25L283.28-8.25 286.53-5.1Q284.13-2.4 280.7-1 277.28 0.4 273.18 0.4L273.18 0.4ZM322.53 0L317.08 0 309.53-10.75Q308.13-10.65 307.33-10.65L307.33-10.65 298.68-10.65 298.68 0 293.68 0 293.68-35 307.33-35Q314.13-35 318.03-31.75 321.93-28.5 321.93-22.8L321.93-22.8Q321.93-18.75 319.93-15.9 317.93-13.05 314.23-11.75L314.23-11.75 322.53 0ZM307.18-14.9Q311.93-14.9 314.43-16.95 316.93-19 316.93-22.8L316.93-22.8Q316.93-26.6 314.43-28.63 311.93-30.65 307.18-30.65L307.18-30.65 298.68-30.65 298.68-14.9 307.18-14.9ZM344.73-35.4Q351.73-35.4 355.78-31.33 359.83-27.25 359.83-19.65L359.83-19.65 359.83 0 354.83 0 354.83-9.65 334.63-9.65 334.63 0 329.73 0 329.73-19.65Q329.73-27.25 333.78-31.33 337.83-35.4 344.73-35.4L344.73-35.4ZM334.63-14L354.83-14 354.83-20.1Q354.83-25.45 352.15-28.2 349.48-30.95 344.73-30.95L344.73-30.95Q339.98-30.95 337.3-28.2 334.63-25.45 334.63-20.1L334.63-20.1 334.63-14ZM384.37-30.95Q379.57-30.95 377.15-28.78 374.72-26.6 374.72-22.45L374.72-22.45 374.72-18.45 390.72-18.45 390.72-14.15 374.72-14.15 374.72 0 369.72 0 369.72-22.5Q369.72-28.55 373.55-31.98 377.37-35.4 384.22-35.4L384.22-35.4Q387.22-35.4 389.82-34.73 392.42-34.05 394.32-32.75L394.32-32.75 392.67-28.6Q389.32-30.95 384.37-30.95L384.37-30.95ZM425.17-31.4L423.42-27.45Q418.32-30.35 412.52-30.9L412.52-30.9 412.52 0 407.57 0 407.57-30.9Q401.72-30.35 396.62-27.45L396.62-27.45 394.87-31.4Q401.57-35.4 409.97-35.4L409.97-35.4Q418.47-35.4 425.17-31.4L425.17-31.4Z" opacity="1" transform="matrix(1,0,0,1,0,0)" fill="#6F7780" class="slogan-text-1" data-fill-palette-color="quaternary" id="text-1"></path></svg></g></svg></g></svg></g></svg></g><g></g></svg></g><defs></defs></svg><rect width="100" height="60" fill="none" stroke="none" visibility="hidden"></rect></g></svg></g></svg>